# xmcd
#
# Track frame offsets:
#	150
#	19695
#	54848
#	73147
#	112057
#	113156
#	130963
#	136140
#	170790
#	204844
#	230002
#	257238
#	307874
#
# Disc length: 4402 seconds
#
# Revision: 1
# Processed by: cddbd v1.5.1PL0 Copyright (c) Steve Scherf et al.
# Submitted via: EasyCDDAExtractor 6.5.2.1
#
DISCID=b611300d
DTITLE=Stacy Michart and Blues-U-Can-Use - "Live" at Bourbon Street Blues and 
DTITLE=Boogie Bar, Disc 1
DYEAR=1997
DGENRE=Blues
TTITLE0=Love of Mine
TTITLE1=Blues Man
TTITLE2=Grits Ain't Groceries
TTITLE3=Your Turn To Cry
TTITLE4=Intro
TTITLE5=Statesboro Blues
TTITLE6=Intro
TTITLE7=Frigidare Woman
TTITLE8=Hoochie Coochie Man
TTITLE9=My Heart's Been Broken Into Again
TTITLE10=Wang Dang Doodle
TTITLE11=Thrill Is Gone
TTITLE12=Part-Time Love
EXTD=
EXTT0=
EXTT1=
EXTT2=
EXTT3=
EXTT4=
EXTT5=
EXTT6=
EXTT7=
EXTT8=
EXTT9=
EXTT10=
EXTT11=
EXTT12=
PLAYORDER=
